<svg width="75" height="75" viewBox="0 0 75 75" fill="none" xmlns="http://www.w3.org/2000/svg">
<rect width="75" height="75" fill="black"/>
<path d="M19.5 38L28.425 13.5H34.515L24.96 38H19.5ZM18.87 38L9.28 13.5H15.335L24.33 38H18.87ZM37.1515 38V13.5H45.7265C47.4065 13.5 48.8882 13.7567 50.1715 14.27C51.4548 14.7833 52.4582 15.565 53.1815 16.615C53.9048 17.665 54.2665 18.995 54.2665 20.605C54.2665 21.4683 54.0332 22.285 53.5665 23.055C53.1232 23.8017 52.5048 24.4783 51.7115 25.085C52.8315 25.6683 53.6832 26.4383 54.2665 27.395C54.8732 28.3283 55.1765 29.4833 55.1765 30.86C55.1765 32.4 54.8265 33.7067 54.1265 34.78C53.4265 35.83 52.4582 36.635 51.2215 37.195C49.9848 37.7317 48.5382 38 46.8815 38H37.1515ZM42.6465 33.03H46.2515C47.2082 33.03 47.9665 32.785 48.5265 32.295C49.0865 31.7817 49.3665 31.1283 49.3665 30.335C49.3665 29.495 49.0748 28.8417 48.4915 28.375C47.9082 27.885 47.1032 27.64 46.0765 27.64H42.6465V33.03ZM42.6465 23.125H45.5515C46.4382 23.125 47.1498 22.9033 47.6865 22.46C48.2232 21.9933 48.4915 21.3517 48.4915 20.535C48.4915 19.695 48.1998 19.0533 47.6165 18.61C47.0565 18.1433 46.2982 17.91 45.3415 17.91H42.6465V23.125Z" fill="white"/>
<path d="M9 64H22.75H36.5" stroke="white" stroke-width="5.5"/>
</svg>
