<svg width="22" height="22" viewBox="0 0 22 22" fill="none" xmlns="http://www.w3.org/2000/svg">
<path d="M9.30212 1H7.46691V2.87032H1V4.74065H11.3496C11.0699 6.23691 9.2938 8.67248 8.4407 9.70324C7.97128 9.45387 6.80524 7.55445 6.2809 6.63591H4.42072C4.5206 7.41396 6.26841 9.75312 7.12984 10.8254L2.4357 15.5511L3.73408 16.8728L8.4407 12.2469L11.3496 15.1147L12.0112 13.182L9.65168 10.8254C11 9.7581 12.5689 6.32419 13.1848 4.74065H15.8939V2.87032H9.30212V1Z" fill="white" stroke="white"/>
<path d="M14.9574 9.77783L10.7876 20.9998H12.6353L13.7214 18.2566H18.1284L19.1896 20.9998H20.9998L16.8051 9.77783H14.9574Z" fill="white" stroke="white"/>
<path d="M15.8689 12.272L14.3833 16.2994H17.417L15.8689 12.272Z" fill="#3C3E42"/>
</svg>
