<svg width="130" height="127" viewBox="0 0 130 127" fill="none" xmlns="http://www.w3.org/2000/svg">
<rect x="0.5" width="129.35" height="127" fill="black"/>
<path d="M17.7703 17.4741H25.4812L32.9812 43.7007L40.5516 17.4741H48.0516L36.2625 52.021H29.4422L17.7703 17.4741ZM68.1141 52.021H52.4578V17.4741H69.2391C73.4734 17.5366 76.4734 18.7632 78.2391 21.1538C79.3016 22.6226 79.8328 24.3804 79.8328 26.4272C79.8328 28.5366 79.3016 30.2319 78.2391 31.5132C77.6453 32.2319 76.7703 32.8882 75.6141 33.4819C77.3797 34.1226 78.7078 35.1382 79.5984 36.5288C80.5047 37.9194 80.9578 39.6069 80.9578 41.5913C80.9578 43.6382 80.4422 45.4741 79.4109 47.0991C78.7547 48.1772 77.9344 49.0835 76.95 49.8179C75.8406 50.6616 74.5281 51.2397 73.0125 51.5522C71.5125 51.8647 69.8797 52.021 68.1141 52.021ZM67.95 36.8101H59.3484V46.021H67.8328C69.3484 46.021 70.5281 45.8179 71.3719 45.4116C72.9031 44.6616 73.6687 43.2241 73.6687 41.0991C73.6687 39.3022 72.9266 38.0679 71.4422 37.396C70.6141 37.021 69.45 36.8257 67.95 36.8101ZM71.5359 30.2241C72.4734 29.6616 72.9422 28.6538 72.9422 27.2007C72.9422 25.5913 72.3172 24.5288 71.0672 24.0132C69.9891 23.6538 68.6141 23.4741 66.9422 23.4741H59.3484V31.0913H67.8328C69.3484 31.0913 70.5828 30.8022 71.5359 30.2241Z" fill="white"/>
<path d="M16.022 108.374H39.7362H63.4503" stroke="white" stroke-width="5.5"/>
</svg>
