<svg width="22" height="21" viewBox="0 0 22 21" fill="none" xmlns="http://www.w3.org/2000/svg">
<path d="M9.30212 0.5H7.46691V2.37032H1V4.24065H11.3496C11.0699 5.73691 9.2938 8.17248 8.4407 9.20324C7.97128 8.95387 6.80524 7.05445 6.2809 6.13591H4.42072C4.5206 6.91396 6.26841 9.25312 7.12984 10.3254L2.4357 15.0511L3.73408 16.3728L8.4407 11.7469L11.3496 14.6147L12.0112 12.682L9.65168 10.3254C11 9.2581 12.5689 5.82419 13.1848 4.24065H15.8939V2.37032H9.30212V0.5Z" fill="white" stroke="white"/>
<path d="M14.9574 9.27783L10.7876 20.4998H12.6353L13.7214 17.7566H18.1284L19.1896 20.4998H20.9998L16.8051 9.27783H14.9574Z" fill="white" stroke="white"/>
<path d="M15.8691 11.772L14.3834 15.7994H17.4171L15.8691 11.772Z" fill="#3C3E42"/>
</svg>
