<svg width="2120" height="450" viewBox="0 0 2120 450" fill="none" xmlns="http://www.w3.org/2000/svg">
<mask id="mask0_218_11268" style="mask-type:alpha" maskUnits="userSpaceOnUse" x="0" y="0" width="2120" height="450">
<rect width="2120" height="450" fill="#7913FB"/>
</mask>
<g mask="url(#mask0_218_11268)">
<path d="M978.636 -89.8319L873.318 487.264C852.783 599.783 927.34 707.558 1039.84 727.985L1616.87 832.755C1729.37 853.182 1837.22 778.527 1857.76 666.008L1963.07 88.9115C1983.61 -23.6077 1909.05 -131.382 1796.55 -151.81L1219.52 -256.579C1107.02 -277.006 999.17 -202.351 978.636 -89.8319Z" fill="url(#paint0_linear_218_11268)"/>
<path d="M1156.98 -91.1767L812.877 273.73C745.788 344.874 749.027 456.879 820.111 523.898L1184.71 867.645C1255.79 934.664 1367.81 931.32 1434.9 860.175L1779 495.269C1846.09 424.124 1842.85 312.12 1771.77 245.101L1407.17 -98.6464C1336.08 -165.665 1224.07 -162.321 1156.98 -91.1767Z" fill="url(#paint1_linear_218_11268)"/>
<path d="M1285.35 -9.10656L868.986 92.4446C787.803 112.245 737.982 194.089 757.706 275.249L858.869 691.505C878.594 772.665 960.395 822.407 1041.58 802.607L1457.95 701.056C1539.13 681.256 1588.95 599.411 1569.23 518.251L1468.06 101.996C1448.34 20.8356 1366.54 -28.9066 1285.35 -9.10656Z" fill="url(#paint2_linear_218_11268)"/>
<path d="M1339.12 109.504L993.568 -11.4734C926.195 -35.0605 852.405 0.450778 828.753 67.8435L707.445 413.499C683.793 480.892 719.236 554.646 786.609 578.233L1132.17 699.21C1199.54 722.797 1273.33 687.285 1296.98 619.892L1418.29 274.237C1441.94 206.844 1406.5 133.091 1339.12 109.504Z" fill="url(#paint3_linear_218_11268)"/>
<path d="M1322.43 219.623L1131.2 -28.0027C1093.91 -76.2811 1024.52 -85.1585 976.205 -47.8309L728.388 143.627C680.073 180.954 671.13 250.352 708.413 298.63L899.645 546.256C936.929 594.534 1006.32 603.411 1054.64 566.084L1302.45 374.626C1350.77 337.299 1359.71 267.901 1322.43 219.623Z" fill="url(#paint4_linear_218_11268)"/>
<path d="M1259.21 290.813L1237.49 24.1975C1233.26 -27.7886 1187.67 -66.4595 1135.68 -62.1761L869.035 -40.2082C817.043 -35.9248 778.327 9.69086 782.562 61.677L804.279 328.292C808.514 380.279 854.095 418.949 906.087 414.666L1172.73 392.698C1224.73 388.415 1263.44 342.799 1259.21 290.813Z" fill="url(#paint5_linear_218_11268)"/>
<path d="M1180.77 312.456L1289.33 111.117C1310.5 71.8604 1295.85 22.9102 1256.61 1.78189L1055.36 -106.582C1016.12 -127.71 967.156 -113.015 945.99 -73.7589L837.432 127.581C816.266 166.837 830.916 215.789 870.154 236.917L1071.4 345.28C1110.64 366.409 1159.6 351.713 1180.77 312.456Z" fill="url(#paint6_linear_218_11268)"/>
<path d="M1114.5 291.47L1286.01 197.587C1319.45 179.283 1331.74 137.353 1313.47 103.935L1219.74 -67.4732C1201.47 -100.892 1159.55 -113.144 1126.11 -94.8405L954.606 -0.957237C921.169 17.3465 908.876 59.2753 927.149 92.6937L1020.88 264.102C1039.15 297.52 1081.07 309.774 1114.5 291.47Z" fill="url(#paint7_linear_218_11268)"/>
<path d="M1076.81 245.564L1243.37 258.058C1275.85 260.494 1304.17 236.144 1306.64 203.67L1319.29 37.0997C1321.76 4.62588 1297.43 -23.6742 1264.96 -26.11L1098.39 -38.6045C1065.92 -41.0403 1037.6 -16.6896 1035.13 15.7842L1022.48 182.354C1020.01 214.828 1044.33 243.128 1076.81 245.564Z" fill="url(#paint8_linear_218_11268)"/>
<path d="M1071.17 195.092L1184.68 281.587C1206.81 298.45 1238.43 294.168 1255.32 272.024L1341.92 158.441C1358.81 136.297 1354.56 104.676 1332.43 87.8129L1218.92 1.31838C1196.79 -15.5446 1165.17 -11.2634 1148.28 10.8806L1061.68 124.464C1044.79 146.608 1049.04 178.229 1071.17 195.092Z" fill="url(#paint9_linear_218_11268)"/>
<path d="M1090.63 156.266L1131.67 271.132C1139.67 293.529 1164.32 305.181 1186.73 297.157L1301.65 256.003C1324.05 247.979 1335.73 223.318 1327.73 200.921L1286.68 86.0549C1278.68 63.6577 1254.03 52.0067 1231.62 60.0305L1116.7 101.185C1094.3 109.209 1082.62 133.869 1090.63 156.266Z" fill="url(#paint10_linear_218_11268)"/>
<path d="M1122.64 137.483L1098.57 238.973C1093.88 258.765 1106.12 278.599 1125.9 283.274L1227.38 307.246C1247.16 311.921 1267.01 299.666 1271.7 279.874L1295.77 178.384C1300.47 158.592 1288.23 138.759 1268.44 134.084L1166.97 110.112C1147.18 105.437 1127.34 117.691 1122.64 137.483Z" fill="url(#paint11_linear_218_11268)"/>
<path d="M1154.32 138.907L1089.83 200.501C1077.25 212.511 1076.78 232.431 1088.78 244.994L1150.32 309.426C1162.32 321.989 1182.24 322.437 1194.81 310.427L1259.3 248.833C1271.88 236.823 1272.35 216.903 1260.35 204.34L1198.81 139.909C1186.81 127.346 1166.89 126.897 1154.32 138.907Z" fill="url(#paint12_linear_218_11268)"/>
</g>
<defs>
<linearGradient id="paint0_linear_218_11268" x1="931.356" y1="182.792" x2="1848.24" y2="350.12" gradientUnits="userSpaceOnUse">
<stop offset="0.151042" stop-color="#FF318C"/>
<stop offset="0.67" stop-color="#B74AF7" stop-opacity="0.9"/>
<stop offset="1" stop-color="#6B57FF" stop-opacity="0.7"/>
</linearGradient>
<linearGradient id="paint1_linear_218_11268" x1="996.196" y1="82.359" x2="1575.57" y2="628.707" gradientUnits="userSpaceOnUse">
<stop offset="0.151042" stop-color="#FF318C"/>
<stop offset="0.67" stop-color="#B74AF7" stop-opacity="0.9"/>
<stop offset="1" stop-color="#6B57FF" stop-opacity="0.7"/>
</linearGradient>
<linearGradient id="paint2_linear_218_11268" x1="1089.39" y1="40.5172" x2="1250.71" y2="701.922" gradientUnits="userSpaceOnUse">
<stop offset="0.151042" stop-color="#FF318C"/>
<stop offset="0.67" stop-color="#B74AF7" stop-opacity="0.9"/>
<stop offset="1" stop-color="#6B57FF" stop-opacity="0.7"/>
</linearGradient>
<linearGradient id="paint3_linear_218_11268" x1="1175.64" y1="53.8784" x2="983.27" y2="603.354" gradientUnits="userSpaceOnUse">
<stop offset="0.151042" stop-color="#FF318C"/>
<stop offset="0.67" stop-color="#B74AF7" stop-opacity="0.9"/>
<stop offset="1" stop-color="#6B57FF" stop-opacity="0.7"/>
</linearGradient>
<linearGradient id="paint4_linear_218_11268" x1="1231.21" y1="103.623" x2="837.311" y2="407.814" gradientUnits="userSpaceOnUse">
<stop offset="0.151042" stop-color="#FF318C"/>
<stop offset="0.67" stop-color="#B74AF7" stop-opacity="0.9"/>
<stop offset="1" stop-color="#6B57FF" stop-opacity="0.7"/>
</linearGradient>
<linearGradient id="paint5_linear_218_11268" x1="1247.86" y1="165.154" x2="824.048" y2="199.676" gradientUnits="userSpaceOnUse">
<stop offset="0.151042" stop-color="#FF318C"/>
<stop offset="0.67" stop-color="#B74AF7" stop-opacity="0.9"/>
<stop offset="1" stop-color="#6B57FF" stop-opacity="0.7"/>
</linearGradient>
<linearGradient id="paint6_linear_218_11268" x1="1231.14" y1="217.045" x2="911.403" y2="44.6503" gradientUnits="userSpaceOnUse">
<stop offset="0.151042" stop-color="#FF318C"/>
<stop offset="0.67" stop-color="#B74AF7" stop-opacity="0.9"/>
<stop offset="1" stop-color="#6B57FF" stop-opacity="0.7"/>
</linearGradient>
<linearGradient id="paint7_linear_218_11268" x1="1195.01" y1="246.479" x2="1045.93" y2="-25.8555" gradientUnits="userSpaceOnUse">
<stop offset="0.151042" stop-color="#FF318C"/>
<stop offset="0.67" stop-color="#B74AF7" stop-opacity="0.9"/>
<stop offset="1" stop-color="#6B57FF" stop-opacity="0.7"/>
</linearGradient>
<linearGradient id="paint8_linear_218_11268" x1="1155.42" y1="250.766" x2="1175.28" y2="-13.9636" gradientUnits="userSpaceOnUse">
<stop offset="0.151042" stop-color="#FF318C"/>
<stop offset="0.67" stop-color="#B74AF7" stop-opacity="0.9"/>
<stop offset="1" stop-color="#6B57FF" stop-opacity="0.7"/>
</linearGradient>
<linearGradient id="paint9_linear_218_11268" x1="1125.07" y1="235.417" x2="1262.65" y2="54.8706" gradientUnits="userSpaceOnUse">
<stop offset="0.151042" stop-color="#FF318C"/>
<stop offset="0.67" stop-color="#B74AF7" stop-opacity="0.9"/>
<stop offset="1" stop-color="#6B57FF" stop-opacity="0.7"/>
</linearGradient>
<linearGradient id="paint10_linear_218_11268" x1="1110.46" y1="210.273" x2="1293.14" y2="144.997" gradientUnits="userSpaceOnUse">
<stop offset="0.151042" stop-color="#FF318C"/>
<stop offset="0.67" stop-color="#B74AF7" stop-opacity="0.9"/>
<stop offset="1" stop-color="#6B57FF" stop-opacity="0.7"/>
</linearGradient>
<linearGradient id="paint11_linear_218_11268" x1="1111.71" y1="185.451" x2="1272.95" y2="223.69" gradientUnits="userSpaceOnUse">
<stop offset="0.151042" stop-color="#FF318C"/>
<stop offset="0.67" stop-color="#B74AF7" stop-opacity="0.9"/>
<stop offset="1" stop-color="#6B57FF" stop-opacity="0.7"/>
</linearGradient>
<linearGradient id="paint12_linear_218_11268" x1="1124.15" y1="168.226" x2="1221.95" y2="270.625" gradientUnits="userSpaceOnUse">
<stop offset="0.151042" stop-color="#FF318C"/>
<stop offset="0.67" stop-color="#B74AF7" stop-opacity="0.9"/>
<stop offset="1" stop-color="#6B57FF" stop-opacity="0.7"/>
</linearGradient>
</defs>
</svg>